<!-- <svg xmlns="http://www.w3.org/2000/svg" viewBox="0 0 841.9 595.3"><g fill="#61DAFB"><path d="M666.3 296.5c0-32.5-40.7-63.3-103.1-82.4 14.4-63.6 8-114.2-20.2-130.4-6.5-3.8-14.1-5.6-22.4-5.6v22.3c4.6 0 8.3.9 11.4 2.6 13.6 7.8 19.5 37.5 14.9 75.7-1.1 9.4-2.9 19.3-5.1 29.4-19.6-4.8-41-8.5-63.5-10.9-13.5-18.5-27.5-35.3-41.6-50 32.6-30.3 63.2-46.9 84-46.9V78c-27.5 0-63.5 19.6-99.9 53.6-36.4-33.8-72.4-53.2-99.9-53.2v22.3c20.7 0 51.4 16.5 84 46.6-14 14.7-28 31.4-41.3 49.9-22.6 2.4-44 6.1-63.6 11-2.3-10-4-19.7-5.2-29-4.7-38.2 1.1-67.9 14.6-75.8 3-1.8 6.9-2.6 11.5-2.6V78.5c-8.4 0-16 1.8-22.6 5.6-28.1 16.2-34.4 66.7-19.9 130.1-62.2 19.2-102.7 49.9-102.7 82.3 0 32.5 40.7 63.3 103.1 82.4-14.4 63.6-8 114.2 20.2 130.4 6.5 3.8 14.1 5.6 22.5 5.6 27.5 0 63.5-19.6 99.9-53.6 36.4 33.8 72.4 53.2 99.9 53.2 8.4 0 16-1.8 22.6-5.6 28.1-16.2 34.4-66.7 19.9-130.1 62-19.1 102.5-49.9 102.5-82.3zm-130.2-66.7c-3.7 12.9-8.3 26.2-13.5 39.5-4.1-8-8.4-16-13.1-24-4.6-8-9.5-15.8-14.4-23.4 14.2 2.1 27.9 4.7 41 7.9zm-45.8 106.5c-7.8 13.5-15.8 26.3-24.1 38.2-14.9 1.3-30 2-45.2 2-15.1 0-30.2-.7-45-1.9-8.3-11.9-16.4-24.6-24.2-38-7.6-13.1-14.5-26.4-20.8-39.8 6.2-13.4 13.2-26.8 20.7-39.9 7.8-13.5 15.8-26.3 24.1-38.2 14.9-1.3 30-2 45.2-2 15.1 0 30.2.7 45 1.9 8.3 11.9 16.4 24.6 24.2 38 7.6 13.1 14.5 26.4 20.8 39.8-6.3 13.4-13.2 26.8-20.7 39.9zm32.3-13c5.4 13.4 10 26.8 13.8 39.8-13.1 3.2-26.9 5.9-41.2 8 4.9-7.7 9.8-15.6 14.4-23.7 4.6-8 8.9-16.1 13-24.1zM421.2 430c-9.3-9.6-18.6-20.3-27.8-32 9 .4 18.2.7 27.5.7 9.4 0 18.7-.2 27.8-.7-9 11.7-18.3 22.4-27.5 32zm-74.4-58.9c-14.2-2.1-27.9-4.7-41-7.9 3.7-12.9 8.3-26.2 13.5-39.5 4.1 8 8.4 16 13.1 24 4.7 8 9.5 15.8 14.4 23.4zM420.7 163c9.3 9.6 18.6 20.3 27.8 32-9-.4-18.2-.7-27.5-.7-9.4 0-18.7.2-27.8.7 9-11.7 18.3-22.4 27.5-32zm-74 58.9c-4.9 7.7-9.8 15.6-14.4 23.7-4.6 8-8.9 16-13 24-5.4-13.4-10-26.8-13.8-39.8 13.1-3.1 26.9-5.8 41.2-7.9zm-90.5 125.2c-35.4-15.1-58.3-34.9-58.3-50.6 0-15.7 22.9-35.6 58.3-50.6 8.6-3.7 18-7 27.7-10.1 5.7 19.6 13.2 40 22.5 60.9-9.2 20.8-16.6 41.1-22.2 60.6-9.9-3.1-19.3-6.5-28-10.2zM310 490c-13.6-7.8-19.5-37.5-14.9-75.7 1.1-9.4 2.9-19.3 5.1-29.4 19.6 4.8 41 8.5 63.5 10.9 13.5 18.5 27.5 35.3 41.6 50-32.6 30.3-63.2 46.9-84 46.9-4.5-.1-8.3-1-11.3-2.7zm237.2-76.2c4.7 38.2-1.1 67.9-14.6 75.8-3 1.8-6.9 2.6-11.5 2.6-20.7 0-51.4-16.5-84-46.6 14-14.7 28-31.4 41.3-49.9 22.6-2.4 44-6.1 63.6-11 2.3 10.1 4.1 19.8 5.2 29.1zm38.5-66.7c-8.6 3.7-18 7-27.7 10.1-5.7-19.6-13.2-40-22.5-60.9 9.2-20.8 16.6-41.1 22.2-60.6 9.9 3.1 19.3 6.5 28.1 10.2 35.4 15.1 58.3 34.9 58.3 50.6-.1 15.7-23 35.6-58.4 50.6zM320.8 78.4z"/><circle cx="420.9" cy="296.5" r="45.7"/><path d="M520.5 78.1z"/></g></svg> -->

<!-- Generator: Adobe Illustrator 17.1.0, SVG Export Plug-In 
<svg version="1.1"
	 xmlns="http://www.w3.org/2000/svg" xmlns:xlink="http://www.w3.org/1999/xlink" xmlns:a="http://ns.adobe.com/AdobeSVGViewerExtensions/3.0/"
	 x="0px" y="0px" width="215.2px" height="150.5px" viewBox="0 0 215.2 150.5" enable-background="new 0 0 215.2 150.5"
	 xml:space="preserve">
<defs>
</defs>
<g>
	<path fill="#FFFFFF" d="M114,100c-2.3,3-27,35.3-28.7,42.1c0,0,12.1-21.1,26.8-32.1c-0.1,0.8-0.2,1.6-0.3,2.4
		c0,0,30,17.5,101-109.9C212.7,2.5,131,26.6,114,100z"/>
	<g>
		<path fill="#FFFFFF" d="M111.8,98.8c-5,6.5-9.8,13-14.6,19.6c-4.9,6.9-12,14.8-14.4,23.1c-0.8,2.7,3.1,4.4,4.6,1.9
			c6.7-11.6,15.3-23,25.9-31.2c-1.2-0.9-2.4-1.9-3.7-2.8c-0.1,1-0.3,2.1-0.4,3.1c-0.1,0.8,0.6,1.8,1.2,2.2
			c6.2,3.6,15.3-0.6,20.7-3.6c9.5-5.3,17.6-13.1,24.9-20.9c13.7-14.7,25.2-31.3,36-48.1c8-12.5,15.5-25.3,22.7-38.2
			c1-1.9-0.7-4.3-2.8-3.7c-15.6,4.6-30.6,12.7-44,21.7c-27.4,18.4-48.8,45-56.5,77.5c-0.7,3.1,4.1,4.5,4.8,1.3
			c7.6-31.7,28.4-57.1,55-75.1c12.8-8.6,27.1-16.3,42-20.7c-0.9-1.2-1.9-2.4-2.8-3.7c-12.8,23-26.5,45.6-42.3,66.6
			c-8.9,11.8-18.8,23.4-30.4,32.7c-5.3,4.3-11.5,8.3-18.3,9.8c-2.5,0.6-4.6,0.7-6.8-0.2c1,0.4,0.4,0.2,0.2,0.1
			c0.4,0.7,0.8,1.4,1.2,2.2c0.1-0.6,0.2-1.2,0.2-1.8c0.3-1.8-1.7-4.4-3.7-2.8c-11.3,8.7-20.6,20.7-27.7,33c1.5,0.6,3,1.3,4.6,1.9
			c0.9-3.2,3.1-6.1,4.9-8.8c2.9-4.5,5.9-8.8,9-13.1c4.7-6.6,9.6-13.2,14.6-19.6C118.1,98.7,113.7,96.2,111.8,98.8z"/>
	</g>
</g>
</svg> -->


<!-- Generator: Adobe Illustrator 17.1.0, SVG Export Plug-In  -->
<!-- <svg version="1.1"
	 xmlns="http://www.w3.org/2000/svg" xmlns:xlink="http://www.w3.org/1999/xlink" xmlns:a="http://ns.adobe.com/AdobeSVGViewerExtensions/3.0/"
	 x="0px" y="0px" width="223px" height="160.8px" viewBox="0 0 223 160.8" enable-background="new 0 0 223 160.8"
	 xml:space="preserve">
<defs>
</defs>
<g>
	<path fill="#FFFFFF" d="M219.9,0.1c-15.6,4.6-30.6,12.7-44,21.7c-27.3,18.4-48.6,44.8-56.4,77.1c-4.9,6.4-9.7,12.9-14.4,19.4
		c-4.9,6.9-12,14.8-14.4,23.1c-0.8,2.7,3.1,4.4,4.6,1.9c6.1-10.5,13.7-20.9,23-28.8c0,0,0,0,0.1,0c6.2,3.6,15.3-0.6,20.7-3.6
		c9.5-5.3,17.6-13.1,24.9-20.9c13.7-14.7,25.2-31.3,36-48.1c8-12.5,15.5-25.3,22.7-38.2C223.8,1.9,222-0.5,219.9,0.1z"/>
	<path fill="#FFFFFF" d="M83.5,67.1c-7.6,0-15.1,0-22.7,0c-0.4,0-0.8,0.1-1.2,0.3c-11.1,0-22.2,0-33.2,0c-0.4-0.2-0.8-0.3-1.2-0.3
		c-7.6,0-15.1,0-22.7,0c-1.4,0-2.5,1.1-2.5,2.5c0,7.3,0,14.7,0,22c0,7.3,0,14.7,0,22c0,7.3,0,14.7,0,22c0,0.1,0,0.2,0,0.3
		c0,0.1,0,0.2,0,0.3c0,7.3,0,14.7,0,22c0,1.4,1.1,2.5,2.5,2.5c7.6,0,15.1,0,22.7,0c11.9,0,23.8,0,35.7,0c0.1,0,0.2,0,0.3,0
		c7.4,0,14.9,0,22.3,0c0.7,0,1.3-0.3,1.7-0.7c0,0,0,0,0.1-0.1c0,0,0,0,0.1-0.1c0.4-0.4,0.7-1,0.7-1.7c0-7.3,0-14.7,0-22
		c0-0.1,0-0.2,0-0.3c0-0.1,0-0.2,0-0.3c0-7.3,0-14.7,0-22c0-7.3,0-14.7,0-22c0-7.3,0-14.7,0-22C86,68.3,84.9,67.1,83.5,67.1z
		 M22.7,111.1c-5.9,0-11.8,0-17.7,0c0-5.7,0-11.3,0-17c5.9,0,11.8,0,17.7,0C22.7,99.8,22.7,105.4,22.7,111.1z M22.7,116.1
		c0,5.7,0,11.3,0,17c-5.9,0-11.8,0-17.7,0c0-5.7,0-11.3,0-17C10.9,116.1,16.8,116.1,22.7,116.1z M22.7,89.1c-5.9,0-11.8,0-17.7,0
		c0-5.7,0-11.3,0-17c5.9,0,11.8,0,17.7,0C22.7,77.8,22.7,83.4,22.7,89.1z M5,138.8c5.9,0,11.8,0,17.7,0c0,5.7,0,11.3,0,17
		c-5.9,0-11.8,0-17.7,0C5,150.1,5,144.4,5,138.8z M27.7,136.3c0-0.2,0-0.4,0-0.7c0-7.3,0-14.7,0-22c0-7.3,0-14.7,0-22
		c0-6.4,0-12.8,0-19.2c10.2,0,20.4,0,30.7,0c0,6.4,0,12.8,0,19.2c0,7.3,0,14.7,0,22c0,7.3,0,14.7,0,22c0,0.1,0,0.2,0,0.3
		c0,0.1,0,0.2,0,0.3c0,6.5,0,13,0,19.5c-10.2,0-20.4,0-30.7,0C27.7,149.3,27.7,142.8,27.7,136.3z M63.7,133.1c0-5.7,0-11.3,0-17
		c5.8,0,11.6,0,17.3,0c0,5.7,0,11.3,0,17C75.2,133.1,69.4,133.1,63.7,133.1z M63.7,111.1c0-5.7,0-11.3,0-17c5.8,0,11.6,0,17.3,0
		c0,5.7,0,11.3,0,17C75.2,111.1,69.4,111.1,63.7,111.1z M63.7,89.1c0-5.7,0-11.3,0-17c5.8,0,11.6,0,17.3,0c0,5.7,0,11.3,0,17
		C75.2,89.1,69.4,89.1,63.7,89.1z M63.7,138.8c5.8,0,11.6,0,17.3,0c0,5.7,0,11.3,0,17c-5.8,0-11.6,0-17.3,0
		C63.7,150.1,63.7,144.4,63.7,138.8z"/>
</g>
</svg> -->
<!-- Generator: Adobe Illustrator 17.1.0, SVG Export Plug-In 
 Generator: Adobe Illustrator 17.1.0, SVG Export Plug-In 
<svg version="1.1"
	 xmlns="http://www.w3.org/2000/svg" xmlns:xlink="http://www.w3.org/1999/xlink" xmlns:a="http://ns.adobe.com/AdobeSVGViewerExtensions/3.0/"
	 x="0px" y="0px" width="358.6px" height="263.7px" viewBox="0 0 358.6 263.7" enable-background="new 0 0 358.6 263.7"
	 xml:space="preserve">
<defs>
</defs>
<path fill="#FFFFFF" d="M239.1,251.3c-10.7-20.5-12.5-43.7-10.9-66.4c2.5-35.5,1.8-63.6-24-90.6c-1.4-1.4-2.6-2.9-4-4.4
	c0.3-0.4,0.7-0.8,1-1.2c2.8,1.4,5.7,2.6,8.3,4.2c10.4,6.2,17.1,16.1,24.6,25.3c6.9,8.5,13.6,17.6,22,24.3c7.2,5.7,14.2,11,22.5,15.1
	c0.1-0.6,0.3-1.2,0.4-1.8c0,0.8,29.1,4.6,31.2,4.8c17.9,2.2,34.6,7,47.8,20.2c0,0,0.2-0.1,0.5-0.2c-7-9.7-15.9-17.1-27.2-21
	c-12.1-4.2-24.5-7.5-36.7-11.3c-11.6-3.6-23.1-8-30.4-18.1c-8-11-14.7-22.9-21.9-34.5c-0.1-0.2,0.2-0.6,0.4-1.3
	c1.9-6.5,41.4,9.6,45.6,11.8c16.1,8.8,27.3,20.7,46.9,21.1c-6.7-2.9-15.1-5.1-21.7-9.8c-11.1-8-21-17.6-32-27.1
	c2.8-0.5,5-1.1,7.3-1.3c11.2-1.4,21.3,2.7,31.5,6.2c5,1.7,10.2,2.9,15.3,4.3c-6.6-3.4-13.5-6-19.9-9.4c-12.3-6.4-25.1-8.3-38.7-6.7
	c-5.4,0.6-10.9,0.2-16.4-0.4c-9.4-1-18.8-2.4-28.1-4c-2.4-0.4-5.1-1.6-6.9-3.3c-8.1-7.8-11.8-17.6-11.7-28.8c0-14.2,0-28.3,0-42.5
	c0-2.9-0.4-4.7-4-4.6c-18.3,0.1-36.7,0.1-55,0c-3,0-4.2,1.1-4.2,4c0,6-0.1,12-0.4,18c-0.6,12.8-1,25.7-5.6,37.9
	c-2.4,6.4-6.5,10.6-13.2,13.3c-9.2,3.7-18.2,8.1-26.7,13.3c-10.6,6.5-17.3,17-24,27.1c-6.6,9.9-15.3,17.3-26.5,21.2
	c-9.4,3.3-19.1,5.8-28.6,8.6c-8.6,2.5-17.1,5-25.7,7.6c0.1,0.4,0.3,0.9,0.4,1.3c-0.3-1,35.2-6.4,38.4-6.9c15.1-2.4,32.6-6.9,45.2-16
	c0.4-0.7,0.9-1.5,1.3-2.3c7.4-13.8,18.1-25.2,33-31.5c7.2-3,14.7-5.1,21.9-7.5c-4.1,11.3-8.2,21.6-11.4,32.2
	c-2.3,7.7-5.9,14.2-12.3,18.8c-13.9,10.1-23.2,23.6-28.1,39.7c-7,22.7-20.8,38.7-42.5,48.1c-0.4,0.2-0.8,0.6-2,1.5
	c23.1-6.8,40.1-19.1,49.8-40.6c6.4-14.3,15.4-26.8,28.3-36.2c1.6-1.2,3.4-2.2,4.2-2.7c4.3,10.5,8.4,20.4,12.5,30.3
	c0.4,1,0.8,2,1.2,3c0.6,1.7,2.7,2.3,3.6,3.8c2.2,3.6,13.2,30.8,10.5,33.9c4.3-5,4.3-13.7,3.5-20c-1.9-14-8.5-27.2-11.1-41.2
	c-2.8-15.1-1-27.8,4.4-42c2.8-7.5,9.1-15.4,15-20.8c1.3-1.3,2.8-2.4,4.1-3.6c1.9-1.8,3.6-1.7,5.6,0.1c12.5,11.1,22.8,19.9,30.8,34.9
	c6.4,11.9,11.1,24.8,13.7,38.1c2.8,14.1-0.5,28.8,1.1,43.1c2.3,20.5,9.1,39.6,23,55.4"/>
</svg> --> 



<!-- Generator: Adobe Illustrator 17.1.0, SVG Export Plug-In  -->
<!-- <svg version="1.1"
	 xmlns="http://www.w3.org/2000/svg" xmlns:xlink="http://www.w3.org/1999/xlink" xmlns:a="http://ns.adobe.com/AdobeSVGViewerExtensions/3.0/"
	 x="0px" y="0px" width="1736.5px" height="1278px" viewBox="0 0 1736.5 1278" enable-background="new 0 0 1736.5 1278"
	 xml:space="preserve">
<defs>
</defs>
<path fill="#FFFFFF" d="M578.4,1217.5c51.8-99.3,60.5-211.6,52.8-321.5c-12.1-171.9-8.7-308,116.3-438.7c6.8-6.8,12.6-14,19.4-21.3
	c-1.5-1.9-3.4-3.9-4.8-5.8c-13.6,6.8-27.6,12.6-40.2,20.3c-50.4,30-82.8,78-119.2,122.5c-33.4,41.2-65.9,85.2-106.6,117.7
	c-34.9,27.6-68.8,53.3-109,73.1c-0.5-2.9-1.5-5.8-1.9-8.7c0,3.9-141,22.3-151.1,23.2C147.3,788.9,66.4,812.1,2.4,876
	c0,0-1-0.5-2.4-1c33.9-47,77-82.8,131.8-101.7c58.6-20.3,118.7-36.3,177.8-54.7c56.2-17.4,111.9-38.7,147.3-87.7
	c38.8-53.3,71.2-110.9,106.1-167.1c0.5-1-1-2.9-1.9-6.3c-9.2-31.5-200.5,46.5-220.9,57.1C262.1,557.4,207.8,615,112.9,617
	c32.5-14,73.1-24.7,105.1-47.5c53.8-38.7,101.7-85.2,155-131.2c-13.6-2.4-24.2-5.3-35.4-6.3c-54.3-6.8-103.2,13.1-152.6,30
	c-24.2,8.2-49.4,14-74.1,20.8c32-16.5,65.4-29.1,96.4-45.5c59.6-31,121.6-40.2,187.5-32.4c26.2,2.9,52.8,1,79.4-1.9
	c45.5-4.8,91.1-11.6,136.1-19.4c11.6-1.9,24.7-7.7,33.4-16c39.2-37.8,57.2-85.2,56.7-139.5c0-68.8,0-137,0-205.8
	c0-14,1.9-22.8,19.4-22.3c88.6,0.5,177.8,0.5,266.4,0c14.5,0,20.3,5.3,20.3,19.4c0,29.1,0.5,58.1,1.9,87.2
	c2.9,62,4.8,124.5,27.1,183.5c11.6,31,31.5,51.3,63.9,64.4c44.6,17.9,88.2,39.2,129.3,64.4c51.3,31.5,83.8,82.3,116.3,131.2
	c32,47.9,74.1,83.8,128.4,102.7c45.5,16,92.5,28.1,138.5,41.6c41.7,12.1,82.8,24.2,124.5,36.8c-0.5,1.9-1.5,4.4-1.9,6.3
	c1.5-4.8-170.5-31-186-33.4c-73.1-11.6-157.9-33.4-218.9-77.5c-1.9-3.4-4.4-7.3-6.3-11.1c-35.8-66.8-87.7-122-159.8-152.5
	c-34.9-14.5-71.2-24.7-106.1-36.3c19.9,54.7,39.7,104.6,55.2,155.9c11.1,37.3,28.6,68.8,59.6,91c67.3,48.9,112.4,114.3,136.1,192.3
	c33.9,109.9,100.8,187.4,205.9,232.9c1.9,1,3.9,2.9,9.7,7.3c-111.9-32.9-194.2-92.5-241.2-196.6c-31-69.2-74.6-129.8-137.1-175.3
	c-7.8-5.8-16.5-10.7-20.3-13.1c-20.8,50.8-40.7,98.8-60.5,146.7c-1.9,4.8-3.9,9.7-5.8,14.5c-2.9,8.2-13.1,11.1-17.4,18.4
	c-10.7,17.4-63.9,149.2-50.9,164.2c-20.8-24.2-20.8-66.3-17-96.9c9.2-67.8,41.2-131.7,53.8-199.5c13.6-73.1,4.8-134.6-21.3-203.4
	c-13.6-36.3-44.1-74.6-72.7-100.7c-6.3-6.3-13.6-11.6-19.9-17.4c-9.2-8.7-17.4-8.2-27.1,0.5c-60.5,53.8-110.4,96.4-149.2,169
	c-31,57.6-53.8,120.1-66.4,184.5c-13.6,68.3,2.4,139.5-5.3,208.7c-11.1,99.3-44.1,191.8-111.4,268.3"/>
</svg> -->
<!-- Generator: Adobe Illustrator 17.1.0, SVG Export Plug-In  -->
<svg version="1.1"
	 xmlns="http://www.w3.org/2000/svg" xmlns:xlink="http://www.w3.org/1999/xlink" xmlns:a="http://ns.adobe.com/AdobeSVGViewerExtensions/3.0/"
	 x="0px" y="0px" width="1662.1px" height="1163.4px" viewBox="0 0 1662.1 1163.4" enable-background="new 0 0 1662.1 1163.4"
	 xml:space="preserve">
<defs>
</defs>
<path fill="#FFFFFF" d="M1658.6,730.2c-2.3-6.1-5.6-15-10.3-26.1c-4.7-11.2-10.7-24.7-18.7-39.8c-8-15.1-17.9-31.7-30.8-48.7
	c-12.9-17-28.8-34.4-48.9-49.8c-10-7.7-21.1-14.8-33.1-20.9c-6-3.1-12.3-5.9-18.7-8.4c-32.9-13-66-11.3-99.7-18.3
	c-11.9-2.5-24.1-6-36.2-10.3c-12.1-4.3-24.3-9.2-36.4-14.5c-24.1-10.7-47.9-23-70.9-35.9c-23.1-12.9-45.4-26.5-66.9-40
	c-42.8-27.1-61.9-44.3-94.9-68.2c-16.2-11.7-33.6-21.9-48.9-34.9c-18.4-15.6-23-41-28.5-64.2c-11.1-47-12.6-95.4-15-143.5
	c-1.5-29.1-1.9-58.1-1.9-87.2c0-14-5.8-19.4-20.3-19.4c-88.6,0.5-177.8,0.5-266.4,0c-17.4-0.5-19.4,8.2-19.4,22.3c0,0,0,197,0,197.1
	c0,31.3-9.2,84.7-30.8,109.9c-25.5,29.8-103,38.1-139.1,49.2c-71.3,21.8-139.9,46.7-206.8,79.1c-4,2.5-7.7,4.7-10.5,6.4
	c-18.8,10.9-40.6,24-63.5,38.7c-11.5,7.4-23.2,15.2-35,23.4c-30.9,21.7-54.8,46.3-79.5,74.4c-4.5,5-9.2,9.9-13.8,14.6
	c-18.7,18.7-37.7,35-54.5,48.4c-16.7,13.4-31.3,23.8-41.8,30.5c-5.3,3.4-9.5,5.8-12.6,7.3c-0.7,0.4-1.4,0.7-2,0.9
	c-0.6,0.2-1.1,0.5-1.5,0.6c-0.8,0.3-1.3,0.4-1.3,0.4s0.4-0.1,1.3-0.3c0.4-0.1,0.9-0.2,1.6-0.4c0.6-0.2,1.3-0.4,2.1-0.7
	c3.2-1.1,7.7-3.1,13.4-5.9c11.3-5.6,27-14.4,45.3-26c18.3-11.6,39.2-25.9,60.5-43c5.3-4.3,10.6-8.8,16-13.5
	c26.4-23.5,51.5-44.9,82.5-62.1c12.1-6.7,24.3-13,36.2-18.9c23.8-11.8,46.4-22.2,65.9-30.9c11.7-5.2,22.2-9.7,31.3-13.6
	c0.3,0.9,57.3-10.8,57.8-13c55.8-19.1,114.4-34.3,119.4-17.2c1,3.4,2.4,5.3,1.9,6.3c-34.9,56.2-67.3,113.8-106.1,167.1
	c-5.4,7.5-11.3,14.3-17.5,20.5c0.1,0.2,0.2,0.5,0.2,0.7c-22.2,21.2-48.5,38.7-75.3,55.1c-52.8,32.4-107,62.6-158.8,96.8
	C129.2,835.8,96.3,881.2,75,935c0,0,0,0,0,0c0.7,0.1,1.2,0.1,1.7,0.2c0.5,0.1,1.1-0.2,1.3-0.6c46.3-77.2,118.7-119.4,199.9-151
	c9.6-3.4,141.1-55.7,140.8-59.7c10,22.8,12.6,52.9,21.5,77.9c10.2,28.7,22.3,56.8,36.1,84c-12.4-24-11.8-61-19.1-87.6
	c-2.1-6.5-6.1-77.4-3.2-86.4c1.8-5.4,3.7-10.2,5.4-14.3c3-2.3,6-4.7,9-7.1c40.7-32.4,73.1-76.5,106.6-117.7
	c36.3-44.6,68.8-92.5,119.2-122.5c12.6-7.7,26.6-13.5,40.2-20.3c0,0,0,0,0.1,0c1.4,1.9,3.4,3.8,4.8,5.8c0,0,0,0,0,0
	c-6.8,7.3-12.6,14.5-19.4,21.3c-38.9,38.9-70.3,87.2-90.3,138.4c-9.2,23.6-16,48.1-20.8,73c-4.3,22.7-10.8,45.4-8.4,68.7
	c2.2,21.4,6,42.5,7.2,64.2c0.6,10.9,1,22.7,0.9,35c-0.5,44.4-17.7,74.2-39.5,111.4c-15.3,26-30.5,52.1-44.4,76.7
	c-13.9,24.7-26.5,47.9-36.7,68.2c-10.2,20.3-17.9,37.6-22.1,50.2c-2.1,6.3-3.3,11.4-3.6,15c-0.2,1.8-0.1,3.1,0,4.1
	c0,0.5,0.1,0.8,0.2,1c0,0.2,0.1,0.3,0.1,0.3s0-0.1,0-0.3c0-0.2-0.1-0.6,0-1c0-0.9,0.1-2.3,0.4-4c0.7-3.4,2.3-8.3,5-14.3
	c5.4-11.9,14.8-28.1,27-47.1c12.2-18.9,27.1-40.5,43.4-63.5c16.4-22.9,34.2-47.1,52.1-71.3c16.8-22.7,37-46.9,48.3-72.8
	c11.7-26.9,13.8-57.7,16.5-86.6c2.8-29.4,1.2-58.2,10.7-86.5c10-29.8,22.8-58.9,37.1-86.8c0,0,0,0,0,0c1.1,1.6,2.1,3.2,3.2,4.8
	c13,19.3,28.2,41.8,44.9,65.8c16.5,23.7,36.7,46.7,49.3,72.8c6,12.4,10.5,25.7,13.5,39.2c3,13.6,4.3,27.5,4.4,41.1
	c0.1,13.6-1.1,27-3,39.6c-1.9,12.7-4.5,24.6-7.4,35.6c-2.8,11-5.9,21-8.6,29.9c-2.8,8.9-5.3,16.7-7.4,23.1c-2,6.4-3.5,11.5-4.4,15
	c-0.5,1.7-0.8,3.1-1,4c-0.2,0.9-0.3,1.4-0.3,1.4s0.2-0.4,0.5-1.3c0.3-0.9,0.9-2.1,1.6-3.8c1.5-3.3,3.7-8,6.8-14
	c3.1-6,6.8-13.2,11-21.6c4.2-8.4,8.9-17.9,13.6-28.6c4.7-10.7,9.4-22.5,13.6-35.4c4.2-12.9,7.8-27,10.2-41.9
	c2.4-15,3.5-30.9,2.6-47.2c-0.8-16.3-3.6-33-8.3-49.2c-8.7-29.7-23.6-57.1-34.1-86.2c-9.7-26.9-18.5-52.3-26-74.1
	c-7.5-21.8-6.6-43.3-6.6-43.3c-0.4-1.1,3.7-24.1,4.5-25c28.8-33.6,25.4-49.9,62.1-82.5c9.7-8.7,17.9-9.2,27.1-0.5
	c6.3,5.8,13.6,11.1,19.9,17.4c28.6,26.1,80.1,64.4,93.7,100.7c26.2,68.8,34.9,130.3,21.3,203.4c-12.6,67.8-44.6,131.7-53.8,199.5
	c-3.9,30.5-3.9,72.6,17,96.9c-7.8-9,6.3-85.4,22.6-128.5c11-28.9,33.2-69.5,37.5-73.5c0,0,0,0,0,0c0.8,5.8,33.9-38.3,34.9-45.6
	c13-31.4,26.1-63.2,39.7-96.3c0,0,0,0,0.1,0c3.9,2.4,12.6,7.3,20.3,13c62.5,45.5,106.1,106.1,137.1,175.3
	c47,104.1,129.2,163.6,241,196.5c0,0,0.1,0,0-0.1c-5.7-4.3-7.6-6.2-9.5-7.1c-105.1-45.5-171.9-123-205.9-232.9
	c-23.7-78-68.8-143.3-136.1-192.3c-31-22.3-48.4-53.8-59.6-91c-14.8-48.9-33.5-96.6-52.4-148.3c0,0,0,0,0,0
	c4.7,3.3,49.8,22.6,49.9,22.6c42.1,10.4,109.6,43.6,108,41.4c0,0,0-0.1,0,0c11.8,5.6,23.9,11,36.2,16.4
	c25.6,11.1,52.1,21.6,79.4,30.6c13.7,4.5,27.6,8.6,41.8,12c14.2,3.4,28.7,6.2,43.6,7.7c18.9,2,37.8-0.3,56.6-0.2
	c1.5,0,3,0.1,4.5,0.1c5.9,0.3,11.8,0.7,17.6,1.6c5.8,0.8,11.5,1.9,17.1,3.3c5.6,1.4,11.1,3,16.5,4.9c10.8,3.8,21.1,8.5,30.7,14.1
	c19.3,11,36.1,24.8,50.2,39c14.2,14.2,25.8,28.9,35.5,42.4c9.7,13.5,17.4,25.9,23.5,36.3c6.1,10.4,10.6,18.7,13.7,24.4
	c3,5.7,4.7,8.8,4.7,8.8S1660.9,736.3,1658.6,730.2z"/>
</svg>
