<!-- <svg xmlns="http://www.w3.org/2000/svg" viewBox="0 0 841.9 595.3"><g fill="#61DAFB"><path d="M666.3 296.5c0-32.5-40.7-63.3-103.1-82.4 14.4-63.6 8-114.2-20.2-130.4-6.5-3.8-14.1-5.6-22.4-5.6v22.3c4.6 0 8.3.9 11.4 2.6 13.6 7.8 19.5 37.5 14.9 75.7-1.1 9.4-2.9 19.3-5.1 29.4-19.6-4.8-41-8.5-63.5-10.9-13.5-18.5-27.5-35.3-41.6-50 32.6-30.3 63.2-46.9 84-46.9V78c-27.5 0-63.5 19.6-99.9 53.6-36.4-33.8-72.4-53.2-99.9-53.2v22.3c20.7 0 51.4 16.5 84 46.6-14 14.7-28 31.4-41.3 49.9-22.6 2.4-44 6.1-63.6 11-2.3-10-4-19.7-5.2-29-4.7-38.2 1.1-67.9 14.6-75.8 3-1.8 6.9-2.6 11.5-2.6V78.5c-8.4 0-16 1.8-22.6 5.6-28.1 16.2-34.4 66.7-19.9 130.1-62.2 19.2-102.7 49.9-102.7 82.3 0 32.5 40.7 63.3 103.1 82.4-14.4 63.6-8 114.2 20.2 130.4 6.5 3.8 14.1 5.6 22.5 5.6 27.5 0 63.5-19.6 99.9-53.6 36.4 33.8 72.4 53.2 99.9 53.2 8.4 0 16-1.8 22.6-5.6 28.1-16.2 34.4-66.7 19.9-130.1 62-19.1 102.5-49.9 102.5-82.3zm-130.2-66.7c-3.7 12.9-8.3 26.2-13.5 39.5-4.1-8-8.4-16-13.1-24-4.6-8-9.5-15.8-14.4-23.4 14.2 2.1 27.9 4.7 41 7.9zm-45.8 106.5c-7.8 13.5-15.8 26.3-24.1 38.2-14.9 1.3-30 2-45.2 2-15.1 0-30.2-.7-45-1.9-8.3-11.9-16.4-24.6-24.2-38-7.6-13.1-14.5-26.4-20.8-39.8 6.2-13.4 13.2-26.8 20.7-39.9 7.8-13.5 15.8-26.3 24.1-38.2 14.9-1.3 30-2 45.2-2 15.1 0 30.2.7 45 1.9 8.3 11.9 16.4 24.6 24.2 38 7.6 13.1 14.5 26.4 20.8 39.8-6.3 13.4-13.2 26.8-20.7 39.9zm32.3-13c5.4 13.4 10 26.8 13.8 39.8-13.1 3.2-26.9 5.9-41.2 8 4.9-7.7 9.8-15.6 14.4-23.7 4.6-8 8.9-16.1 13-24.1zM421.2 430c-9.3-9.6-18.6-20.3-27.8-32 9 .4 18.2.7 27.5.7 9.4 0 18.7-.2 27.8-.7-9 11.7-18.3 22.4-27.5 32zm-74.4-58.9c-14.2-2.1-27.9-4.7-41-7.9 3.7-12.9 8.3-26.2 13.5-39.5 4.1 8 8.4 16 13.1 24 4.7 8 9.5 15.8 14.4 23.4zM420.7 163c9.3 9.6 18.6 20.3 27.8 32-9-.4-18.2-.7-27.5-.7-9.4 0-18.7.2-27.8.7 9-11.7 18.3-22.4 27.5-32zm-74 58.9c-4.9 7.7-9.8 15.6-14.4 23.7-4.6 8-8.9 16-13 24-5.4-13.4-10-26.8-13.8-39.8 13.1-3.1 26.9-5.8 41.2-7.9zm-90.5 125.2c-35.4-15.1-58.3-34.9-58.3-50.6 0-15.7 22.9-35.6 58.3-50.6 8.6-3.7 18-7 27.7-10.1 5.7 19.6 13.2 40 22.5 60.9-9.2 20.8-16.6 41.1-22.2 60.6-9.9-3.1-19.3-6.5-28-10.2zM310 490c-13.6-7.8-19.5-37.5-14.9-75.7 1.1-9.4 2.9-19.3 5.1-29.4 19.6 4.8 41 8.5 63.5 10.9 13.5 18.5 27.5 35.3 41.6 50-32.6 30.3-63.2 46.9-84 46.9-4.5-.1-8.3-1-11.3-2.7zm237.2-76.2c4.7 38.2-1.1 67.9-14.6 75.8-3 1.8-6.9 2.6-11.5 2.6-20.7 0-51.4-16.5-84-46.6 14-14.7 28-31.4 41.3-49.9 22.6-2.4 44-6.1 63.6-11 2.3 10.1 4.1 19.8 5.2 29.1zm38.5-66.7c-8.6 3.7-18 7-27.7 10.1-5.7-19.6-13.2-40-22.5-60.9 9.2-20.8 16.6-41.1 22.2-60.6 9.9 3.1 19.3 6.5 28.1 10.2 35.4 15.1 58.3 34.9 58.3 50.6-.1 15.7-23 35.6-58.4 50.6zM320.8 78.4z"/><circle cx="420.9" cy="296.5" r="45.7"/><path d="M520.5 78.1z"/></g></svg> -->

<!-- Generator: Adobe Illustrator 17.1.0, SVG Export Plug-In 
<svg version="1.1"
	 xmlns="http://www.w3.org/2000/svg" xmlns:xlink="http://www.w3.org/1999/xlink" xmlns:a="http://ns.adobe.com/AdobeSVGViewerExtensions/3.0/"
	 x="0px" y="0px" width="215.2px" height="150.5px" viewBox="0 0 215.2 150.5" enable-background="new 0 0 215.2 150.5"
	 xml:space="preserve">
<defs>
</defs>
<g>
	<path fill="#FFFFFF" d="M114,100c-2.3,3-27,35.3-28.7,42.1c0,0,12.1-21.1,26.8-32.1c-0.1,0.8-0.2,1.6-0.3,2.4
		c0,0,30,17.5,101-109.9C212.7,2.5,131,26.6,114,100z"/>
	<g>
		<path fill="#FFFFFF" d="M111.8,98.8c-5,6.5-9.8,13-14.6,19.6c-4.9,6.9-12,14.8-14.4,23.1c-0.8,2.7,3.1,4.4,4.6,1.9
			c6.7-11.6,15.3-23,25.9-31.2c-1.2-0.9-2.4-1.9-3.7-2.8c-0.1,1-0.3,2.1-0.4,3.1c-0.1,0.8,0.6,1.8,1.2,2.2
			c6.2,3.6,15.3-0.6,20.7-3.6c9.5-5.3,17.6-13.1,24.9-20.9c13.7-14.7,25.2-31.3,36-48.1c8-12.5,15.5-25.3,22.7-38.2
			c1-1.9-0.7-4.3-2.8-3.7c-15.6,4.6-30.6,12.7-44,21.7c-27.4,18.4-48.8,45-56.5,77.5c-0.7,3.1,4.1,4.5,4.8,1.3
			c7.6-31.7,28.4-57.1,55-75.1c12.8-8.6,27.1-16.3,42-20.7c-0.9-1.2-1.9-2.4-2.8-3.7c-12.8,23-26.5,45.6-42.3,66.6
			c-8.9,11.8-18.8,23.4-30.4,32.7c-5.3,4.3-11.5,8.3-18.3,9.8c-2.5,0.6-4.6,0.7-6.8-0.2c1,0.4,0.4,0.2,0.2,0.1
			c0.4,0.7,0.8,1.4,1.2,2.2c0.1-0.6,0.2-1.2,0.2-1.8c0.3-1.8-1.7-4.4-3.7-2.8c-11.3,8.7-20.6,20.7-27.7,33c1.5,0.6,3,1.3,4.6,1.9
			c0.9-3.2,3.1-6.1,4.9-8.8c2.9-4.5,5.9-8.8,9-13.1c4.7-6.6,9.6-13.2,14.6-19.6C118.1,98.7,113.7,96.2,111.8,98.8z"/>
	</g>
</g>
</svg> -->


<!-- Generator: Adobe Illustrator 17.1.0, SVG Export Plug-In  -->
<!-- <svg version="1.1"
	 xmlns="http://www.w3.org/2000/svg" xmlns:xlink="http://www.w3.org/1999/xlink" xmlns:a="http://ns.adobe.com/AdobeSVGViewerExtensions/3.0/"
	 x="0px" y="0px" width="223px" height="160.8px" viewBox="0 0 223 160.8" enable-background="new 0 0 223 160.8"
	 xml:space="preserve">
<defs>
</defs>
<g>
	<path fill="#FFFFFF" d="M219.9,0.1c-15.6,4.6-30.6,12.7-44,21.7c-27.3,18.4-48.6,44.8-56.4,77.1c-4.9,6.4-9.7,12.9-14.4,19.4
		c-4.9,6.9-12,14.8-14.4,23.1c-0.8,2.7,3.1,4.4,4.6,1.9c6.1-10.5,13.7-20.9,23-28.8c0,0,0,0,0.1,0c6.2,3.6,15.3-0.6,20.7-3.6
		c9.5-5.3,17.6-13.1,24.9-20.9c13.7-14.7,25.2-31.3,36-48.1c8-12.5,15.5-25.3,22.7-38.2C223.8,1.9,222-0.5,219.9,0.1z"/>
	<path fill="#FFFFFF" d="M83.5,67.1c-7.6,0-15.1,0-22.7,0c-0.4,0-0.8,0.1-1.2,0.3c-11.1,0-22.2,0-33.2,0c-0.4-0.2-0.8-0.3-1.2-0.3
		c-7.6,0-15.1,0-22.7,0c-1.4,0-2.5,1.1-2.5,2.5c0,7.3,0,14.7,0,22c0,7.3,0,14.7,0,22c0,7.3,0,14.7,0,22c0,0.1,0,0.2,0,0.3
		c0,0.1,0,0.2,0,0.3c0,7.3,0,14.7,0,22c0,1.4,1.1,2.5,2.5,2.5c7.6,0,15.1,0,22.7,0c11.9,0,23.8,0,35.7,0c0.1,0,0.2,0,0.3,0
		c7.4,0,14.9,0,22.3,0c0.7,0,1.3-0.3,1.7-0.7c0,0,0,0,0.1-0.1c0,0,0,0,0.1-0.1c0.4-0.4,0.7-1,0.7-1.7c0-7.3,0-14.7,0-22
		c0-0.1,0-0.2,0-0.3c0-0.1,0-0.2,0-0.3c0-7.3,0-14.7,0-22c0-7.3,0-14.7,0-22c0-7.3,0-14.7,0-22C86,68.3,84.9,67.1,83.5,67.1z
		 M22.7,111.1c-5.9,0-11.8,0-17.7,0c0-5.7,0-11.3,0-17c5.9,0,11.8,0,17.7,0C22.7,99.8,22.7,105.4,22.7,111.1z M22.7,116.1
		c0,5.7,0,11.3,0,17c-5.9,0-11.8,0-17.7,0c0-5.7,0-11.3,0-17C10.9,116.1,16.8,116.1,22.7,116.1z M22.7,89.1c-5.9,0-11.8,0-17.7,0
		c0-5.7,0-11.3,0-17c5.9,0,11.8,0,17.7,0C22.7,77.8,22.7,83.4,22.7,89.1z M5,138.8c5.9,0,11.8,0,17.7,0c0,5.7,0,11.3,0,17
		c-5.9,0-11.8,0-17.7,0C5,150.1,5,144.4,5,138.8z M27.7,136.3c0-0.2,0-0.4,0-0.7c0-7.3,0-14.7,0-22c0-7.3,0-14.7,0-22
		c0-6.4,0-12.8,0-19.2c10.2,0,20.4,0,30.7,0c0,6.4,0,12.8,0,19.2c0,7.3,0,14.7,0,22c0,7.3,0,14.7,0,22c0,0.1,0,0.2,0,0.3
		c0,0.1,0,0.2,0,0.3c0,6.5,0,13,0,19.5c-10.2,0-20.4,0-30.7,0C27.7,149.3,27.7,142.8,27.7,136.3z M63.7,133.1c0-5.7,0-11.3,0-17
		c5.8,0,11.6,0,17.3,0c0,5.7,0,11.3,0,17C75.2,133.1,69.4,133.1,63.7,133.1z M63.7,111.1c0-5.7,0-11.3,0-17c5.8,0,11.6,0,17.3,0
		c0,5.7,0,11.3,0,17C75.2,111.1,69.4,111.1,63.7,111.1z M63.7,89.1c0-5.7,0-11.3,0-17c5.8,0,11.6,0,17.3,0c0,5.7,0,11.3,0,17
		C75.2,89.1,69.4,89.1,63.7,89.1z M63.7,138.8c5.8,0,11.6,0,17.3,0c0,5.7,0,11.3,0,17c-5.8,0-11.6,0-17.3,0
		C63.7,150.1,63.7,144.4,63.7,138.8z"/>
</g>
</svg> -->
<!-- Generator: Adobe Illustrator 17.1.0, SVG Export Plug-In  -->
<!-- <svg version="1.1"
	 xmlns="http://www.w3.org/2000/svg" xmlns:xlink="http://www.w3.org/1999/xlink" xmlns:a="http://ns.adobe.com/AdobeSVGViewerExtensions/3.0/"
	 x="0px" y="0px" width="358.6px" height="284.5px" viewBox="0 0 358.6 284.5" enable-background="new 0 0 358.6 284.5"
	 xml:space="preserve">
<defs>
</defs>
<path fill="#FFFFFF" d="M215.6,144.4c-3.2,11.3-12.5,20.3-10,33.9c2.2,12.6-1.6,24.7-6.8,36.3c-3.1,7-5.6,14.3-9.1,21.4
	c2.2-8.3,4.3-16.6,6.8-24.8c3.5-11.8,5.9-23.5,2.7-37c-11,13.3-21.6,25.7-27,41.5c0.8-10.8,5.5-20.2,10.5-29.4
	c5.5-10.2,11.6-20.2,16.6-30.8c4.6-9.8,6.6-20.4,4.6-31.2c-0.8-4.5-3.2-9.3-6.4-12.5c-6.9-7-14.7-13-22-19.5c-2-1.8-3.7-1.9-5.6-0.1
	c-1.3,1.2-2.8,2.4-4.1,3.6c-8.5,8-8.4,9.3-2.9,19.6c2.6,4.9,4.7,10.4,5.5,15.9c1.2,8.2,1,16.5,0.9,25c-5.9-13.8-3.4-31-17.3-42
	c-7.1,13.7-10,27.9-6.7,42.4c2.9,13,8,25.4,11.2,38.3c2.6,10.4,4.1,21.1,5.5,31.8c0.6,4.7,1.5,8.7,4.9,12.2
	c5.4,5.6,8.2,12.4,8.4,20.3c0.2,7.9,0.6,15.9,0.3,24c-0.9-5-1.9-10.1-2.6-15.1c-0.8-5.2-0.8-10.6-2-15.8c-1.1-5.1-4.6-8.7-9-10.7
	c-6.2,14.4-12.4,28.7-18.5,42.9c-0.5-0.2-1-0.3-1.5-0.5c0.7-2.1,1.3-4.3,2.1-6.4c6.1-15.2,11.5-30.6,11-47.3
	c-0.3-11-3.7-21.2-8.3-31.3c-7,1.7-11.8,5.9-16,10.9c-7.8,9.3-11.3,20.6-14.1,32.2c-1.3,5.2-2.5,10.3-4.2,15.3
	c2.1-20,3.3-40.3,17.1-56.8c2.4-2.9,5.7-5.1,9-7.1c3.6-2.2,4.2-4.8,2.8-8.4c-0.8-2-1.5-4-2.4-6c-4.1-9.9-8.2-19.8-12.5-30.3
	c-0.7,0.5-2.5,1.5-4.2,2.7c-12.8,9.4-21.8,21.9-28.3,36.2c-9.6,21.5-26.7,33.8-49.8,40.6c1.2-0.9,1.6-1.3,2-1.5
	c21.7-9.4,35.5-25.4,42.5-48.1c5-16.1,14.2-29.6,28.1-39.7c6.5-4.7,10-11.2,12.3-18.8c3.2-10.6,7.4-20.9,11.4-32.2
	c-7.1,2.4-14.7,4.5-21.9,7.5c-14.9,6.2-25.6,17.7-33,31.5c-6,11.2-13.5,20.2-24.2,27.2c-7.3,4.7-13.4,11.2-19.2,16.2
	c6.9-14.3,23.4-21.5,32.5-35.8c-23.2,12.7-49.7,10.4-74,17.6c-0.1-0.4-0.3-0.9-0.4-1.3c8.6-2.5,17.1-5,25.7-7.6
	c9.6-2.8,19.2-5.4,28.6-8.6c11.2-3.9,19.9-11.3,26.5-21.2c6.7-10.1,13.4-20.6,24-27.1c8.5-5.2,17.5-9.6,26.7-13.3
	c6.7-2.7,10.8-6.8,13.2-13.3c4.6-12.2,5-25.1,5.6-37.9c0.3-6,0.4-12,0.4-18c0-3,1.2-4.1,4.2-4c18.3,0.1,36.7,0.1,55,0
	c3.6,0,4,1.8,4,4.6c-0.1,14.2,0,28.3,0,42.5c0,11.2,3.6,21,11.7,28.8c1.8,1.7,4.5,2.8,6.9,3.3c9.3,1.6,18.7,3,28.1,4
	c5.4,0.6,11,1,16.4,0.4c13.6-1.6,26.5,0.3,38.7,6.7c6.4,3.4,13.3,6,19.9,9.4c-5.1-1.4-10.3-2.6-15.3-4.3
	c-10.2-3.5-20.3-7.6-31.5-6.2c-2.2,0.3-4.4,0.8-7.3,1.3c11,9.5,20.9,19.1,32,27.1c6.5,4.7,14.9,6.9,21.7,9.8
	c-10.4-0.2-21.1-3.6-30.9-9.6c-5.1-3.1-9.7-7-14.5-10.6c-14-10.8-30.2-13-47.1-12.6c-0.2,0.7-0.5,1.1-0.4,1.3
	c7.2,11.5,13.9,23.5,21.9,34.5c7.3,10.1,18.8,14.5,30.4,18.1c12.2,3.8,24.6,7.1,36.7,11.3c11.3,3.9,20.1,11.3,27.2,21
	c-0.3,0.1-0.5,0.2-0.5,0.2c-13.2-13.2-29.9-18-47.8-20.2c-10.2-1.3-20.3-3.3-32-5.2c1.6,4.7,2.2,9.2,4.5,12.7
	c4.2,6.2,9.1,11.9,14.2,17.3c8.5,9,15.3,18.9,17.1,31.5c0.7,4.9,0.9,9.9,0.2,14.9c-0.6-3.6-1-7.2-1.7-10.7
	c-2.3-10.2-6.8-19.1-14.6-26.2c-6.4-5.8-13-11.4-20.4-18c-0.2,3.2-0.8,5.8-0.3,8.1c1.7,7.6,4.1,15.1,5.9,22.7c1.7,7,3,14,3.7,21.2
	c-0.5-10.1-4.9-18.9-8.7-28c-2.9-6.9-4.6-13.8-4.4-21.3c0.4-15.2-4.8-27.4-17.3-37.2c-8.5-6.7-15.1-15.8-22-24.3
	c-7.5-9.2-14.2-19-24.6-25.3c-2.6-1.6-5.5-2.8-8.3-4.2c-0.3,0.4-0.7,0.8-1,1.2c1.3,1.5,2.6,3,4,4.4c11.5,12.1,21,25.3,24.6,42.1
	c2.9,13.3,1.5,26.5,0.1,39.8c-2.7,25.8-2.2,51.4,10.1,75.1c4.2,8,10.2,15.1,15.9,23.4c-4.1-4-8-7.2-11.2-11
	c-13.9-15.9-20.7-34.9-23-55.4c-1.5-13.8-1.1-27.9-1.7-41.9c-0.3-7.3-1-14.6-1.5-22C217,144.4,216.3,144.4,215.6,144.4z"/>
</svg> -->


<!-- Generator: Adobe Illustrator 17.1.0, SVG Export Plug-In  -->
<!-- <svg version="1.1"
	 xmlns="http://www.w3.org/2000/svg" xmlns:xlink="http://www.w3.org/1999/xlink" xmlns:a="http://ns.adobe.com/AdobeSVGViewerExtensions/3.0/"
	 x="0px" y="0px" width="1736.5px" height="1278px" viewBox="0 0 1736.5 1278" enable-background="new 0 0 1736.5 1278"
	 xml:space="preserve">
<defs>
</defs>
<path fill="#FFFFFF" d="M1736.5,731.3c-41.7-12.6-82.8-24.7-124.5-36.8c-46-13.6-93-25.7-138.5-41.6
	c-54.3-18.9-96.4-54.7-128.4-102.7c-32.4-48.9-64.9-99.8-116.3-131.2c-41.2-25.2-84.8-46.5-129.3-64.4
	c-32.4-13.1-52.3-33.4-63.9-64.4c-22.3-59.1-24.2-121.5-27.1-183.5c-1.5-29.1-1.9-58.1-1.9-87.2c0-14-5.8-19.4-20.3-19.4
	c-88.6,0.5-177.8,0.5-266.4,0c-17.4-0.5-19.4,8.2-19.4,22.3c0,68.8,0,137,0,205.8c0.5,54.2-17.4,101.7-56.7,139.5
	c-8.7,8.2-21.8,14-33.4,16c-45,7.7-90.6,14.5-136.1,19.4c-26.6,2.9-53.3,4.8-79.4,1.9c-65.9-7.7-127.9,1.5-187.5,32.4
	c-31,16.5-64.4,29.1-96.4,45.5c24.7-6.8,49.9-12.6,74.1-20.8c49.4-17,98.3-36.8,152.6-30c11.1,1,21.8,3.9,35.4,6.3
	c-53.3,46-101.2,92.5-155,131.2c-32,22.8-72.7,33.4-105.1,47.5c89.2-1.8,142.5-52.8,213.3-94.3c0.1,0.5,0.3,1,0.4,1.6
	c1.9,6.9,3.6,15,4.3,23.7c0.7,8.6,0.2,17.8-2.5,26.1c-0.3,1-0.7,2-1.1,3c-0.2,0.5-0.4,1-0.7,1.5l-0.3,0.7l-0.1,0.2l0,0
	c0,0-0.2,0.3-0.1,0.2l-0.1,0.1l-0.2,0.4c-0.5,1-1.4,2.8-2,4.1c-0.6,1.4-1.2,2.8-1.7,4.2c-2,5.7-2.9,11.6-2.9,17.2
	c0,5.6,0.9,10.8,2.3,15.5c1.4,4.7,3.3,8.8,5.3,12.4c4,7.2,8.6,12.3,12.1,15.4c1.8,1.5,3.3,2.6,4.5,3.1c0.6,0.3,1.1,0.4,1.4,0.4
	c0.3,0,0.5,0,0.5,0c0,0-0.7-0.1-1.6-0.8c-1-0.7-2.2-2-3.5-3.8c-2.6-3.6-5.7-9.4-7.8-16.6c-1-3.6-1.8-7.6-2.1-11.7
	c-0.3-4.1,0-8.5,1-12.6c1-4.2,2.7-8.2,5-11.8c0.6-0.9,1.2-1.8,1.9-2.7l0.5-0.6l0.5-0.6l1.1-1.3l0.3-0.4l0.1-0.1
	c0.1-0.1-0.1,0.1,0,0.1l0-0.1l0.2-0.2l0.7-0.9c0.5-0.6,0.9-1.2,1.4-1.8c0.9-1.2,1.8-2.5,2.6-3.8c3.3-5.2,5.8-10.8,7.7-16.5
	c1.9-5.6,3.2-11.3,4-16.7c1.8-10.9,2-21,1.8-29.7c-0.2-4.9-0.5-9.3-0.8-13.1c53.1-22.5,194.8-76,202.7-49c1,3.4,2.4,5.3,1.9,6.3
	C528,520.1,495.5,577.7,456.8,631c-35.4,48.9-91.1,70.2-147.3,87.7c-59.1,18.4-119.2,34.4-177.8,54.7C77,792.3,33.9,828.1,0,875.1
	c1.5,0.5,2.4,1,2.4,1c63.9-63.9,144.8-87.2,231.5-97.8c8.4-0.8,105.3-13.4,139.3-20c-3.7,5.7-7.2,11.8-10.2,18.1
	c-1.9,3.9-3.6,8-5,12.2c-1.4,4.2-2.5,8.6-3,13.2c-0.3,2.3-0.4,4.7-0.3,7c0.1,1.2,0.1,2.4,0.3,3.6c0.1,0.6,0.2,1.2,0.2,1.8l0.3,1.4
	c0.7,3.8,1.5,7.6,2.2,11.3c1.5,7.4,3,14.5,4.3,21.1c1.3,6.7,2.4,13,2.9,18.8c0.6,5.8,0.5,11.1-0.2,15.7c-0.4,2.3-0.9,4.4-1.6,6.4
	c-0.7,1.9-1.4,3.6-2.3,5.1c-1.7,3-3.4,5.1-4.6,6.5c-1.3,1.4-2,2.1-2,2.1s0.2-0.2,0.6-0.4c0.4-0.3,1-0.7,1.7-1.3
	c1.4-1.2,3.5-3.1,5.7-5.9c1.1-1.4,2.2-3.1,3.2-5c1-1.9,1.9-4.1,2.7-6.5c1.5-4.8,2.5-10.5,2.8-16.7c0.4-6.2,0.2-12.8,0-19.7
	c-0.3-6.9-0.7-14.2-1-21.6c-0.2-3.7-0.3-7.4-0.4-11.3l0-1.4c0-0.4,0-0.8,0-1.1c0-0.7,0.1-1.5,0.2-2.2c0.2-1.5,0.5-3,1-4.6
	c1.7-6.2,5.2-12.6,9.3-18.7c4.1-6.1,8.9-11.9,14-17.4c5-5.5,10.3-10.7,15.6-15.6c1.4-1.3,2.8-2.6,4.2-3.8
	c29-17.2,55.3-37.3,82.2-58.5c0.1-0.1,0.2-0.1,0.3-0.2c0.2,13,1.8,27.1,5.6,41.4c1.1,4,2.4,8.1,3.8,12.1c1.5,4,3.1,8,5,12
	c1.9,3.9,3.9,7.9,6.2,11.7c1.2,1.9,2.3,3.8,3.5,5.7c1.1,1.7,2.3,3.4,3.4,5.2c0.6,0.9,1.1,1.7,1.7,2.6l0.9,1.3l0.8,1.2
	c1,1.6,2,3.3,3.1,4.9c2,3.4,4,6.8,5.9,10.4c3.8,7,7.2,14.3,10,21.8c2.9,7.5,5.2,15.3,6.7,23.1c1.6,7.9,2.3,15.9,2.2,23.9
	c-0.1,4-0.4,8-1,11.9c-0.6,4-1.3,7.9-2.4,11.8c-2.1,7.7-5.1,15.3-8.9,22.4c-0.5,0.9-1,1.8-1.5,2.7c-0.5,0.9-1,1.8-1.5,2.6l-1.7,2.8
	c-0.6,1-1.2,2-1.7,3c-2.2,4-4.1,7.8-5.9,11.7c-3.7,7.8-7.1,15.5-10.3,23.1c-6.4,15.2-12.3,30-17.6,44.1c-5.3,14.1-10.1,27.5-14.4,40
	c-8.5,24.9-14.6,46-17.8,61c-1.6,7.5-2.4,13.5-2.3,17.7c0,2.1,0.2,3.6,0.6,4.7c0.2,0.5,0.3,0.9,0.5,1.1c0.1,0.2,0.2,0.3,0.2,0.3
	s-0.1-0.1-0.2-0.4c-0.1-0.2-0.3-0.6-0.4-1.1c-0.2-1-0.4-2.6-0.2-4.6c0.3-4.1,1.5-10,3.5-17.3c4.2-14.7,11.7-35.2,21.8-59.3
	c5.1-12.1,10.7-25.1,17-38.7c6.3-13.6,13-27.9,20.4-42.4c3.7-7.3,7.5-14.6,11.6-21.8c2-3.6,4.1-7.2,6.3-10.6
	c0.5-0.8,1.1-1.7,1.6-2.5l1.8-2.6c0.7-0.9,1.3-1.9,1.9-2.8c0.6-1,1.3-1.9,1.9-2.9c4.9-7.7,8.9-16.2,12-25.1c1.5-4.5,2.8-9,3.8-13.7
	c1-4.6,1.6-9.3,2.1-14.1c0.8-9.5,0.6-19-0.6-28.3c-1.2-9.3-3.2-18.4-5.9-27.2c-2.7-8.8-5.9-17.2-9.5-25.4c-1.8-4.1-3.8-8-5.7-11.9
	c-1-2-2.1-3.9-3.1-5.9l-0.8-1.5l-0.8-1.3c-0.5-0.9-1-1.8-1.5-2.7c-1-1.8-2-3.5-3-5.3c-0.9-1.6-1.7-3.2-2.5-4.8
	c-1.6-3.2-3-6.5-4.3-9.8c-1.3-3.3-2.3-6.6-3.3-9.9c-0.9-3.3-1.7-6.6-2.4-9.9c-2.6-13.2-2.9-26-1.9-37.9c1-11.8,3.2-22.7,5.8-32.1
	c0.1-0.3,0.2-0.7,0.3-1c23.8-25.5,45.4-53.9,67.4-81c36.3-44.6,68.8-92.5,119.2-122.5c12.6-7.7,26.6-13.6,40.2-20.3
	c1.5,1.9,3.4,3.9,4.8,5.8c-6.8,7.3-12.6,14.5-19.4,21.3C622.4,587.9,619,724,631.2,895.9c7.8,109.9-1,222.3-52.8,321.5l-24.2,60.5
	c67.3-76.5,100.3-169,111.4-268.3c7.8-69.2-8.2-140.4,5.3-208.7c12.4-63.6,34.8-125.4,65.3-182.4c0.8,2.4,1.7,4.7,2.6,7.1
	c8.2,21.8,20.2,45.7,34.9,69.7c1.9,3,3.7,6,5.6,9c1.9,3,3.9,6,5.8,9c4,6,8.1,12,12.4,18c2.1,2.9,4.1,5.9,6.2,8.8
	c1.1,1.5,2,2.9,2.9,4.3c0.9,1.4,1.9,2.8,2.8,4.3c3.7,5.9,7.1,12,10,18.2c5.9,12.5,10.1,25.7,11.7,39.1c0.8,6.7,0.9,13.4,0.5,20
	c-0.5,6.6-1.6,13.1-3.3,19.5c-3.3,12.7-8.6,24.5-14.6,35.3c-6,10.8-12.6,20.6-18.9,29.6c-6.3,9-12.2,17.2-17.2,24.7
	c-5,7.5-9,14.2-11.9,20.1c-2.8,5.8-4.5,10.7-5.3,14c-0.2,0.8-0.4,1.6-0.5,2.2c-0.1,0.6-0.2,1.2-0.3,1.6c-0.2,0.9-0.2,1.3-0.2,1.3
	s0.1-0.4,0.3-1.3c0.1-0.4,0.2-1,0.4-1.6c0.2-0.6,0.4-1.3,0.7-2.2c1.1-3.2,3.1-7.9,6.3-13.3c3.3-5.5,7.7-11.8,13.3-18.7
	c5.5-7,12.1-14.6,19.2-23.1c7-8.5,14.6-17.9,21.8-28.6c3.6-5.3,7-11,10.2-17.1c3.2-6.1,6.1-12.5,8.5-19.3c2.4-6.8,4.3-14,5.4-21.4
	c1.2-7.4,1.6-15.1,1.4-22.8c-0.5-15.5-4.1-30.9-9.5-45.5c-2.7-7.3-5.9-14.3-9.4-21.2c-0.8-1.7-1.8-3.4-2.7-5.1
	c-0.9-1.7-1.9-3.5-2.8-5c-1.9-3.2-3.7-6.3-5.5-9.4c-3.7-6.1-7.1-12.3-10.5-18.3c-1.6-3.1-3.3-6.1-4.9-9.1c-1.6-3-3.1-6.1-4.6-9
	c-6-12-11.4-23.8-15.9-35c-4.5-11.3-8.2-22-11.1-32c-2.8-10-4.8-19.1-6-27.1c-0.7-4.9-1.1-9.3-1.3-13.2
	c34.4-49.2,75.7-84.9,123.8-127.5c9.7-8.7,17.9-9.2,27.1-0.5c6.3,5.8,13.6,11.1,19.9,17.4c19.5,17.8,39.8,41.3,55.1,65.9
	c-0.1,3.7-0.2,7.5-0.3,11.6c-0.1,3.6-0.1,7.3-0.2,11.2c0,3.9,0,7.8-0.1,11.9c0,4.1,0,8.3,0.1,12.6c0.1,4.3,0.1,8.7,0.2,13.2
	c0.2,9,0.6,18.2,1.2,27.7c0.2,2.4,0.3,4.7,0.5,7.1c0.2,2.4,0.4,4.8,0.6,7.2c0.2,2.3,0.4,4.6,0.6,6.9c0.1,1.9,0.2,4.1,0.2,6.2
	c0.1,8.6-1,17.5-2.7,26.2c-1.7,8.7-4,17.3-6.6,25.5c-5.3,16.5-11.7,31.5-17.8,44.1c-6.1,12.6-11.8,22.9-16,29.9
	c-2.1,3.5-3.8,6.2-5.1,8.1c-1.2,1.8-2,2.7-2,2.7s0.9-0.8,2.3-2.5c1.5-1.7,3.6-4.1,6.1-7.4c5.1-6.5,12.2-16,19.9-27.9
	c7.7-11.9,16.3-26.3,23.9-42.6c3.8-8.2,7.4-16.8,10.4-26c3-9.2,5.5-18.8,6.8-29c0.3-2.5,0.5-5.1,0.7-7.8c0.1-2.4,0.2-4.8,0.3-7.1
	c0.1-2.3,0.2-4.6,0.3-6.9c0.1-2.3,0.3-4.6,0.4-6.8c0.6-9.1,1.4-18,2.3-26.7c0-0.4,0.1-0.8,0.1-1.1c19,58.8,24.2,113.9,12.3,177.9
	c-12.6,67.8-44.6,131.7-53.8,199.5c-3.9,30.5-3.9,72.6,17,96.9c-11.2-12.9,26.5-111.9,44.1-150.6c0,0.2,0.1,0.5,0.1,0.7
	c0.5,4.5,1.3,9,2,13.6c0.3,2.3,0.8,4.6,1.2,6.8c0.4,2.3,0.8,4.6,1.3,6.9c0.5,2.3,1,4.6,1.5,6.9l0.8,3.4l0.9,3.4l1.7,6.8
	c0.6,2.3,1.3,4.5,1.9,6.7c0.7,2.2,1.3,4.5,2,6.7c0.7,2.2,1.5,4.4,2.2,6.6c1.4,4.4,3.1,8.6,4.7,12.8c0.4,1.1,0.8,2.1,1.2,3.1
	c0.4,1,0.9,2.1,1.3,3.1c0.9,2,1.8,4.1,2.6,6.1c0.4,1,0.8,2,1.3,3c0.5,1,0.9,1.9,1.4,2.9c0.9,1.9,1.9,3.8,2.8,5.7
	c0.5,0.9,0.9,1.9,1.4,2.8c0.5,0.9,1,1.8,1.5,2.7c1,1.8,2,3.6,2.9,5.3c0.5,0.9,1,1.7,1.4,2.6c0.5,0.8,1,1.7,1.5,2.5
	c1,1.6,2,3.3,3,4.9c0.5,0.8,1,1.6,1.5,2.4c0.2,0.4,0.5,0.8,0.7,1.2c0.3,0.4,0.5,0.7,0.8,1.1c1,1.5,2,2.9,3,4.4c1,1.4,2,2.8,2.9,4.2
	c0.2,0.3,0.5,0.7,0.7,1c0.3,0.3,0.5,0.6,0.8,1c0.5,0.6,1,1.3,1.5,1.9c1.9,2.5,3.8,4.8,5.5,7c1.8,2.1,3.6,4.1,5.2,5.9
	c1.6,1.8,3,3.5,4.4,4.9c5.6,5.7,8.9,8.9,8.9,8.9s-2.8-3.6-7.6-10c-1.2-1.6-2.4-3.5-3.7-5.4c-1.3-2-2.8-4.1-4.3-6.4
	c-1.4-2.4-2.9-4.9-4.4-7.6c-0.4-0.7-0.8-1.3-1.2-2c-0.2-0.3-0.4-0.7-0.6-1c-0.2-0.4-0.4-0.7-0.6-1.1c-0.7-1.4-1.5-2.9-2.3-4.4
	c-0.8-1.5-1.6-3-2.4-4.6c-0.2-0.4-0.4-0.8-0.6-1.2c-0.2-0.4-0.4-0.8-0.5-1.2c-0.4-0.8-0.7-1.6-1.1-2.5c-0.7-1.7-1.5-3.3-2.3-5
	c-0.4-0.9-0.8-1.7-1.2-2.6c-0.3-0.9-0.7-1.8-1-2.7c-0.7-1.8-1.4-3.6-2.1-5.4c-0.4-0.9-0.7-1.8-1.1-2.8c-0.4-0.9-0.6-1.9-1-2.8
	c-0.6-1.9-1.3-3.8-1.9-5.8c-0.3-1-0.6-1.9-1-2.9c-0.3-1-0.6-2-0.9-3c-0.6-2-1.1-4-1.7-6.1c-0.3-1-0.6-2-0.9-3.1
	c-0.2-1-0.5-2.1-0.7-3.1c-1-4.2-2-8.4-2.8-12.7c-0.4-2.1-0.8-4.3-1.2-6.4c-0.3-2.2-0.7-4.4-1-6.5c-0.3-2.2-0.7-4.4-1-6.6l-0.8-6.6
	l-0.4-3.3l-0.3-3.3c-0.2-2.2-0.4-4.4-0.6-6.6c-0.2-2.2-0.2-4.4-0.4-6.6c-0.1-2.2-0.3-4.4-0.3-6.5c-0.1-4.4-0.3-8.7-0.2-12.9
	c0-2.1,0-4.2,0-6.3c0.1-2.1,0.1-4.2,0.2-6.3c0.1-4.1,0.4-8.2,0.6-12.2c0.3-4,0.6-7.8,0.9-11.6c0-0.3,0.1-0.6,0.1-0.8
	c1.1-2.8,2.2-5.5,3.3-8.3c19.9-47.9,39.7-95.9,60.5-146.7c3.9,2.4,12.6,7.3,20.3,13.1c62.5,45.5,106.1,106.1,137.1,175.3
	c47,104.1,129.3,163.7,241.2,196.6c-5.8-4.4-7.8-6.3-9.7-7.3c-105.1-45.5-172-123-205.9-232.9c-23.7-78-68.8-143.3-136.1-192.3
	c-31-22.3-48.4-53.8-59.6-91c-15.5-51.3-35.4-101.2-55.2-155.9c34.9,11.6,71.2,21.8,106.1,36.3c68.3,28.9,118.4,79.9,153.9,141.9
	c5.3,11.3,12.7,26.6,22.2,44.4c10.3,19.1,22.9,41.1,38.2,63.6c7.6,11.3,15.9,22.7,24.9,33.9c9,11.2,18.7,22.2,29.3,32.4
	c5.3,5.1,10.8,10,16.6,14.6c2.9,2.3,5.9,4.6,8.6,6.6c2.8,2.1,5.6,4.2,8.4,6.3c11.1,8.4,21.8,16.8,32.1,25.1
	c20.5,16.7,39.1,33,54.1,47.9c7.5,7.5,14.1,14.6,19.6,21.1c5.5,6.6,9.9,12.7,12.8,18c3,5.3,4.4,10.1,4.4,13.3c0,1.6-0.4,2.9-0.7,3.7
	c-0.3,0.8-0.6,1.2-0.6,1.2s0.3-0.3,0.7-1.1c0.4-0.8,0.9-2,1-3.7c0.4-3.4-0.7-8.4-3.3-14.1c-2.6-5.8-6.5-12.3-11.4-19.5
	c-5-7.2-11-14.9-17.9-23.1c-13.8-16.4-31.1-34.5-50.3-53.1c-9.6-9.3-19.7-18.7-30.2-28.2c-2.6-2.3-5.3-4.7-7.9-7.1
	c-2.7-2.4-5.2-4.6-7.6-6.9c-4.9-4.7-9.6-9.6-14.1-14.7c-9-10.3-17.2-21.3-24.8-32.6c-7.6-11.3-14.5-22.8-20.8-34.1
	c-8.4-15-15.7-29.8-22.2-43.6c53.2,25.5,115,40.1,170.1,48.8c15.5,2.4,187.5,28.6,186,33.4C1735.1,735.6,1736,733.2,1736.5,731.3z"
	/>
</svg> -->


<!-- Generator: Adobe Illustrator 17.1.0, SVG Export Plug-In  -->
<svg version="1.1"
	 xmlns="http://www.w3.org/2000/svg" xmlns:xlink="http://www.w3.org/1999/xlink" xmlns:a="http://ns.adobe.com/AdobeSVGViewerExtensions/3.0/"
	 x="0px" y="0px" width="1662.1px" height="1163.4px" viewBox="0 0 1662.1 1163.4" enable-background="new 0 0 1662.1 1163.4"
	 xml:space="preserve">
<defs>
</defs>
<path fill="#FFFFFF" d="M1658.6,730.2c-2.3-6.1-5.6-15-10.3-26.1c-4.7-11.2-10.7-24.7-18.7-39.8c-8-15.1-17.9-31.7-30.8-48.7
	c-12.9-17-28.8-34.4-48.9-49.8c-10-7.7-21.1-14.8-33.1-20.9c-6-3.1-12.3-5.9-18.7-8.4c-32.9-13-66-11.3-99.7-18.3
	c-11.9-2.5-24.1-6-36.2-10.3c-12.1-4.3-24.3-9.2-36.4-14.5c-24.1-10.7-47.9-23-70.9-35.9c-23.1-12.9-45.4-26.5-66.9-40
	c-42.8-27.1-61.9-44.3-94.9-68.2c-16.2-11.7-33.6-21.9-48.9-34.9c-18.4-15.6-23-41-28.5-64.2c-11.1-47-12.6-95.4-15-143.5
	c-1.5-29.1-1.9-58.1-1.9-87.2c0-14-5.8-19.4-20.3-19.4c-88.6,0.5-177.8,0.5-266.4,0c-17.4-0.5-19.4,8.2-19.4,22.3c0,0,0,197,0,197.1
	c0,31.3-9.2,84.7-30.8,109.9c-25.5,29.8-103,38.1-139.1,49.2c-71.3,21.8-139.9,46.7-206.8,79.1c-4,2.5-7.7,4.7-10.5,6.4
	c-18.8,10.9-40.6,24-63.5,38.7c-11.5,7.4-23.2,15.2-35,23.4c-30.9,21.7-54.8,46.3-79.5,74.4c-4.5,5-9.2,9.9-13.8,14.6
	c-18.7,18.7-37.7,35-54.5,48.4c-16.7,13.4-31.3,23.8-41.8,30.5c-5.3,3.4-9.5,5.8-12.6,7.3c-0.7,0.4-1.4,0.7-2,0.9
	c-0.6,0.2-1.1,0.5-1.5,0.6c-0.8,0.3-1.3,0.4-1.3,0.4s0.4-0.1,1.3-0.3c0.4-0.1,0.9-0.2,1.6-0.4c0.6-0.2,1.3-0.4,2.1-0.7
	c3.2-1.1,7.7-3.1,13.4-5.9c11.3-5.6,27-14.4,45.3-26c18.3-11.6,39.2-25.9,60.5-43c5.3-4.3,10.6-8.8,16-13.5
	c26.4-23.5,51.5-44.9,82.5-62.1c12.1-6.7,24.3-13,36.2-18.9c23.8-11.8,46.4-22.2,65.9-30.9c11.7-5.2,22.2-9.7,31.3-13.6
	c0.3,0.9,0.5,1.9,0.8,2.8c0.4,1.4,0.8,2.9,1.1,4.3c6.1,24.2-12,60.7-22,82.3c-7.4,15.9-15.5,31.6-23.6,46.2
	c-8.1,14.5-16.1,27.8-23.5,38.9c-7.4,11.1-14.1,19.9-19.4,25.5c-2.7,2.8-5,4.8-6.6,6c-0.8,0.6-1.5,1-2,1.3c-0.5,0.3-0.7,0.4-0.7,0.4
	s0.3-0.1,0.8-0.2c0.5-0.2,1.3-0.4,2.3-0.9c2-0.8,4.7-2.4,8-4.6c6.6-4.5,15.2-12,24.9-21.5c9.7-9.5,20.6-21.1,31.8-34
	c11.2-12.9,22.7-26.9,33.7-41.6c5.5-7.4,10.9-14.9,16-22.7c14.4-22,23.6-46.7,30.5-71.9c2.4-8.7,4.2-16.6,5.6-23.3
	c55.8-19.1,114.4-34.3,119.4-17.2c1,3.4,2.4,5.3,1.9,6.3c-34.9,56.2-67.3,113.8-106.1,167.1c-5.4,7.5-11.3,14.3-17.5,20.5
	c0.1,0.2,0.2,0.5,0.2,0.7c-22.2,21.2-48.5,38.7-75.3,55.1c-52.8,32.4-107,62.6-158.8,96.8C129.2,835.8,96.3,881.2,75,935
	c0,0,0,0,0,0c0.7,0.1,1.2,0.1,1.7,0.2c0.5,0.1,1.1-0.2,1.3-0.6c46.3-77.2,118.7-119.4,199.9-151c9.6-3.4,141.1-55.7,140.8-59.7
	c10,22.8,12.6,52.9,21.5,77.9c10.2,28.7,22.3,56.8,36.1,84c-12.4-24-11.8-61-19.1-87.6c-2.1-6.5-6.1-77.4-3.2-86.4
	c1.8-5.4,3.7-10.2,5.4-14.3c3-2.3,6-4.7,9-7.1c40.7-32.4,73.1-76.5,106.6-117.7c36.3-44.6,68.8-92.5,119.2-122.5
	c12.6-7.7,26.6-13.5,40.2-20.3c0,0,0,0,0.1,0c1.4,1.9,3.4,3.8,4.8,5.8c0,0,0,0,0,0c-6.8,7.3-12.6,14.5-19.4,21.3
	c-38.9,38.9-70.3,87.2-90.3,138.4c-9.2,23.6-16,48.1-20.8,73c-4.3,22.7-10.8,45.4-8.4,68.7c2.2,21.4,6,42.5,7.2,64.2
	c0.6,10.9,1,22.7,0.9,35c-0.5,44.4-17.7,74.2-39.5,111.4c-15.3,26-30.5,52.1-44.4,76.7c-13.9,24.7-26.5,47.9-36.7,68.2
	c-10.2,20.3-17.9,37.6-22.1,50.2c-2.1,6.3-3.3,11.4-3.6,15c-0.2,1.8-0.1,3.1,0,4.1c0,0.5,0.1,0.8,0.2,1c0,0.2,0.1,0.3,0.1,0.3
	s0-0.1,0-0.3c0-0.2-0.1-0.6,0-1c0-0.9,0.1-2.3,0.4-4c0.7-3.4,2.3-8.3,5-14.3c5.4-11.9,14.8-28.1,27-47.1
	c12.2-18.9,27.1-40.5,43.4-63.5c16.4-22.9,34.2-47.1,52.1-71.3c16.8-22.7,37-46.9,48.3-72.8c11.7-26.9,13.8-57.7,16.5-86.6
	c2.8-29.4,1.2-58.2,10.7-86.5c10-29.8,22.8-58.9,37.1-86.8c0,0,0,0,0,0c1.1,1.6,2.1,3.2,3.2,4.8c13,19.3,28.2,41.8,44.9,65.8
	c16.5,23.7,36.7,46.7,49.3,72.8c6,12.4,10.5,25.7,13.5,39.2c3,13.6,4.3,27.5,4.4,41.1c0.1,13.6-1.1,27-3,39.6
	c-1.9,12.7-4.5,24.6-7.4,35.6c-2.8,11-5.9,21-8.6,29.9c-2.8,8.9-5.3,16.7-7.4,23.1c-2,6.4-3.5,11.5-4.4,15c-0.5,1.7-0.8,3.1-1,4
	c-0.2,0.9-0.3,1.4-0.3,1.4s0.2-0.4,0.5-1.3c0.3-0.9,0.9-2.1,1.6-3.8c1.5-3.3,3.7-8,6.8-14c3.1-6,6.8-13.2,11-21.6
	c4.2-8.4,8.9-17.9,13.6-28.6c4.7-10.7,9.4-22.5,13.6-35.4c4.2-12.9,7.8-27,10.2-41.9c2.4-15,3.5-30.9,2.6-47.2
	c-0.8-16.3-3.6-33-8.3-49.2c-8.7-29.7-23.6-57.1-34.1-86.2c-9.7-26.9-18.5-52.3-26-74.1c-7.5-21.8-6.6-43.3-6.6-43.3
	c-0.4-1.1,3.7-24.1,4.5-25c28.8-33.6,25.4-49.9,62.1-82.5c9.7-8.7,17.9-9.2,27.1-0.5c6.3,5.8,13.6,11.1,19.9,17.4
	c28.6,26.1,80.1,64.4,93.7,100.7c26.2,68.8,34.9,130.3,21.3,203.4c-12.6,67.8-44.6,131.7-53.8,199.5c-3.9,30.5-3.9,72.6,17,96.9
	c-7.8-9,6.3-85.4,22.6-128.5c11-28.9,33.2-69.5,37.5-73.5c0,0,0,0,0,0c1.8,13.9,7.3,53.7,10,66.6c4.2,20.4,9.7,39.1,16.4,54.5
	c3.3,7.7,7,14.5,10.7,20.1c3.7,5.7,7.5,10.3,11,13.6c0.4,0.4,0.8,0.8,1.2,1.3c0.4,0.4,0.8,0.7,1.2,1.1c0.8,0.7,1.6,1.4,2.3,2
	c1.5,1.1,2.7,2.1,3.8,2.8c2.2,1.3,3.3,2.1,3.3,2.1s-1-0.9-2.9-2.6c-0.9-0.9-2-2-3.2-3.3c-0.6-0.7-1.2-1.5-1.9-2.3
	c-0.3-0.4-0.7-0.8-1-1.3c-0.3-0.5-0.6-0.9-1-1.4c-2.7-3.8-5.6-8.7-8.1-14.6c-2.6-5.9-4.9-12.8-6.7-20.5c-3.8-15.4-5.9-33.9-6.6-53.8
	c-0.7-19.9,0-41.2,1.5-62.4c1.2-16,2.8-32,4.8-47.5c13-31.4,26.1-63.2,39.7-96.3c0,0,0,0,0.1,0c3.9,2.4,12.6,7.3,20.3,13
	c62.5,45.5,106.1,106.1,137.1,175.3c47,104.1,129.2,163.6,241,196.5c0,0,0.1,0,0-0.1c-5.7-4.3-7.6-6.2-9.5-7.1
	c-105.1-45.5-171.9-123-205.9-232.9c-23.7-78-68.8-143.3-136.1-192.3c-31-22.3-48.4-53.8-59.6-91c-14.8-48.9-33.5-96.6-52.4-148.3
	c0,0,0,0,0,0c9.8,7,23.9,17.2,40.5,30.1c16.4,12.8,35.1,28.1,54.2,45.4c9.5,8.7,19.1,17.8,28.5,27.4c9.3,9.6,18.4,19.6,26.6,30
	c14.5,18.3,23.1,39,32.8,59.9c1.6,3.5,3.3,6.7,5,9.9c7,12.7,14.8,23.8,22.7,33.8c7.9,10,16.1,18.9,24.1,26.5
	c8,7.7,15.8,14.1,23.2,19.2c7.3,5.2,14.1,9,19.9,11.7c5.8,2.7,10.5,4.2,13.8,5.2c1.6,0.4,2.9,0.8,3.7,0.9c0.8,0.2,1.3,0.3,1.3,0.3
	s-0.4-0.2-1.2-0.5c-0.8-0.3-1.9-0.9-3.4-1.7c-2.9-1.5-7.2-4-12.1-7.7c-4.9-3.7-10.5-8.6-16.3-14.8c-5.8-6.2-11.8-13.7-17.6-22.2
	c-5.8-8.6-11.6-18.3-16.8-28.8c-18.8-37.7-21.4-79.4-42.3-116.3c-7.5-13.3-15.7-25.9-24.2-37.9c-1.5-2.2-3.1-4.3-4.6-6.4
	c0,0,0-0.1,0,0c11.8,5.6,23.9,11,36.2,16.4c25.6,11.1,52.1,21.6,79.4,30.6c13.7,4.5,27.6,8.6,41.8,12c14.2,3.4,28.7,6.2,43.6,7.7
	c18.9,2,37.8-0.3,56.6-0.2c1.5,0,3,0.1,4.5,0.1c5.9,0.3,11.8,0.7,17.6,1.6c5.8,0.8,11.5,1.9,17.1,3.3c5.6,1.4,11.1,3,16.5,4.9
	c10.8,3.8,21.1,8.5,30.7,14.1c19.3,11,36.1,24.8,50.2,39c14.2,14.2,25.8,28.9,35.5,42.4c9.7,13.5,17.4,25.9,23.5,36.3
	c6.1,10.4,10.6,18.7,13.7,24.4c3,5.7,4.7,8.8,4.7,8.8S1660.9,736.3,1658.6,730.2z"/>
</svg>
